<svg xmlns="http://www.w3.org/2000/svg" xmlns:xlink="http://www.w3.org/1999/xlink" width="1000" zoomAndPan="magnify" viewBox="0 0 750 74.999997" height="100" preserveAspectRatio="xMidYMid meet" version="1.0"><rect x="-75" width="900" fill="#ffffff" y="-7.5" height="89.999996" fill-opacity="1"/><rect x="-75" width="900" fill="#ffffff" y="-7.5" height="89.999996" fill-opacity="1"/><path fill="#235789" d="M 723.195312 8.722656 C 668.59375 26.957031 629.742188 38.109375 586.824219 47.78125 C 537.246094 58.988281 501.988281 63.585938 460.496094 64.273438 C 415.671875 64.960938 380.523438 61.3125 325.976562 50.160156 C 303.988281 45.667969 278.457031 39.90625 224.171875 27.167969 C 170.3125 14.535156 137.011719 7.824219 116.398438 5.550781 C 79.769531 1.425781 42.554688 4.703125 7.671875 15.117188 L 1.167969 17.019531 L 1.0625 95.671875 L 0.90625 174.375 L 749.09375 174.375 L 749.09375 87.160156 C 749.09375 39.167969 749.042969 0 748.988281 0.0546875 C 748.882812 0.105469 737.308594 4.015625 723.195312 8.722656 Z M 723.195312 8.722656 " fill-opacity="1" fill-rule="nonzero"/></svg>