<svg xmlns="http://www.w3.org/2000/svg" xmlns:xlink="http://www.w3.org/1999/xlink" width="1080" zoomAndPan="magnify" viewBox="0 0 810 809.999993" height="1080" preserveAspectRatio="xMidYMid meet" version="1.0"><defs><clipPath id="a21428a58e"><path d="M 3 48.601562 L 806 48.601562 L 806 761.101562 L 3 761.101562 Z M 3 48.601562 " clip-rule="nonzero"/></clipPath></defs><g clip-path="url(#a21428a58e)"><path fill="#ffc9d4" d="M 404.820312 48.597656 C 401.292969 48.601562 397.871094 49.195312 394.550781 50.386719 C 391.234375 51.578125 388.210938 53.292969 385.488281 55.53125 L 15.007812 360.195312 C 14.238281 360.828125 13.503906 361.496094 12.796875 362.203125 C 12.09375 362.910156 11.425781 363.648438 10.792969 364.417969 C 10.164062 365.191406 9.570312 365.992188 9.015625 366.820312 C 8.464844 367.648438 7.953125 368.503906 7.484375 369.382812 C 7.015625 370.261719 6.589844 371.164062 6.210938 372.085938 C 5.828125 373.007812 5.492188 373.945312 5.207031 374.898438 C 4.917969 375.855469 4.675781 376.820312 4.484375 377.796875 C 4.289062 378.777344 4.144531 379.761719 4.046875 380.753906 C 3.949219 381.746094 3.902344 382.738281 3.902344 383.738281 C 3.902344 384.734375 3.953125 385.730469 4.054688 386.722656 C 4.152344 387.714844 4.296875 388.699219 4.492188 389.675781 C 4.6875 390.652344 4.933594 391.617188 5.222656 392.574219 C 5.511719 393.527344 5.847656 394.464844 6.230469 395.382812 C 6.613281 396.304688 7.039062 397.207031 7.511719 398.085938 C 7.984375 398.964844 8.496094 399.816406 9.050781 400.644531 C 9.605469 401.472656 10.199219 402.273438 10.832031 403.042969 C 11.464844 403.8125 12.132812 404.550781 12.839844 405.253906 C 13.546875 405.957031 14.285156 406.625 15.054688 407.257812 C 15.828125 407.890625 16.628906 408.480469 17.457031 409.035156 C 18.285156 409.589844 19.140625 410.097656 20.019531 410.566406 C 20.902344 411.039062 21.800781 411.460938 22.722656 411.84375 C 23.644531 412.222656 24.582031 412.558594 25.535156 412.847656 C 26.492188 413.132812 27.457031 413.375 28.433594 413.570312 C 29.414062 413.761719 30.398438 413.90625 31.390625 414.003906 C 32.382812 414.101562 33.378906 414.148438 34.375 414.148438 C 35.371094 414.148438 36.367188 414.097656 37.359375 414 C 38.351562 413.898438 39.335938 413.753906 40.3125 413.558594 C 41.289062 413.363281 42.257812 413.117188 43.210938 412.828125 C 44.164062 412.539062 45.101562 412.203125 46.023438 411.820312 C 46.941406 411.4375 47.84375 411.011719 48.722656 410.539062 C 49.601562 410.070312 50.453125 409.554688 51.28125 409 C 52.109375 408.445312 52.910156 407.851562 53.679688 407.21875 L 404.820312 118.457031 L 755.96875 407.21875 C 756.738281 407.851562 757.539062 408.445312 758.367188 409 C 759.195312 409.554688 760.046875 410.066406 760.925781 410.539062 C 761.804688 411.007812 762.707031 411.4375 763.625 411.820312 C 764.546875 412.199219 765.484375 412.539062 766.4375 412.828125 C 767.390625 413.117188 768.359375 413.359375 769.335938 413.554688 C 770.3125 413.753906 771.296875 413.898438 772.289062 413.996094 C 773.28125 414.097656 774.277344 414.144531 775.273438 414.148438 C 776.269531 414.148438 777.265625 414.101562 778.257812 414.003906 C 779.25 413.90625 780.234375 413.761719 781.210938 413.570312 C 782.191406 413.375 783.15625 413.132812 784.109375 412.84375 C 785.066406 412.558594 786.003906 412.222656 786.925781 411.84375 C 787.847656 411.460938 788.746094 411.035156 789.625 410.566406 C 790.507812 410.097656 791.359375 409.585938 792.191406 409.035156 C 793.019531 408.480469 793.820312 407.890625 794.589844 407.257812 C 795.363281 406.625 796.101562 405.957031 796.808594 405.253906 C 797.511719 404.550781 798.183594 403.8125 798.816406 403.042969 C 799.449219 402.273438 800.042969 401.472656 800.597656 400.644531 C 801.152344 399.816406 801.664062 398.960938 802.136719 398.085938 C 802.605469 397.207031 803.035156 396.304688 803.414062 395.382812 C 803.796875 394.464844 804.136719 393.527344 804.425781 392.574219 C 804.714844 391.621094 804.957031 390.652344 805.152344 389.675781 C 805.347656 388.699219 805.496094 387.714844 805.59375 386.722656 C 805.695312 385.730469 805.742188 384.734375 805.746094 383.738281 C 805.746094 382.742188 805.699219 381.746094 805.601562 380.753906 C 805.503906 379.761719 805.359375 378.777344 805.164062 377.796875 C 804.972656 376.820312 804.730469 375.855469 804.441406 374.898438 C 804.15625 373.945312 803.820312 373.007812 803.441406 372.085938 C 803.058594 371.164062 802.632812 370.261719 802.164062 369.382812 C 801.695312 368.503906 801.183594 367.648438 800.632812 366.820312 C 800.078125 365.992188 799.488281 365.191406 798.855469 364.417969 C 798.222656 363.648438 797.554688 362.910156 796.851562 362.203125 C 796.148438 361.496094 795.410156 360.828125 794.640625 360.195312 L 424.160156 55.53125 C 421.433594 53.292969 418.414062 51.578125 415.09375 50.386719 C 411.773438 49.195312 408.347656 48.601562 404.820312 48.597656 Z M 404.828125 192.574219 C 401.300781 192.574219 397.878906 193.167969 394.558594 194.355469 C 391.238281 195.546875 388.214844 197.261719 385.492188 199.5 L 100.628906 433.753906 C 98.890625 435.183594 97.332031 436.785156 95.949219 438.558594 C 94.566406 440.332031 93.398438 442.234375 92.4375 444.265625 C 91.476562 446.300781 90.75 448.414062 90.257812 450.605469 C 89.765625 452.800781 89.523438 455.023438 89.523438 457.269531 L 89.523438 731.0625 C 89.523438 732.0625 89.570312 733.054688 89.667969 734.046875 C 89.765625 735.039062 89.914062 736.023438 90.105469 737.003906 C 90.300781 737.980469 90.542969 738.945312 90.832031 739.902344 C 91.121094 740.855469 91.457031 741.792969 91.839844 742.714844 C 92.222656 743.632812 92.648438 744.535156 93.117188 745.414062 C 93.585938 746.292969 94.097656 747.148438 94.652344 747.976562 C 95.207031 748.804688 95.800781 749.605469 96.433594 750.375 C 97.066406 751.148438 97.734375 751.882812 98.4375 752.589844 C 99.144531 753.292969 99.882812 753.964844 100.652344 754.59375 C 101.421875 755.226562 102.222656 755.820312 103.050781 756.375 C 103.882812 756.929688 104.734375 757.441406 105.613281 757.910156 C 106.492188 758.382812 107.394531 758.808594 108.316406 759.1875 C 109.234375 759.570312 110.171875 759.90625 111.128906 760.195312 C 112.082031 760.484375 113.046875 760.726562 114.027344 760.921875 C 115.003906 761.117188 115.988281 761.261719 116.980469 761.359375 C 117.972656 761.457031 118.96875 761.507812 119.964844 761.507812 L 320.910156 761.507812 C 321.90625 761.507812 322.902344 761.457031 323.894531 761.359375 C 324.886719 761.261719 325.871094 761.117188 326.851562 760.921875 C 327.828125 760.726562 328.792969 760.484375 329.746094 760.195312 C 330.703125 759.90625 331.640625 759.570312 332.558594 759.1875 C 333.480469 758.808594 334.382812 758.382812 335.261719 757.910156 C 336.140625 757.441406 336.996094 756.929688 337.824219 756.375 C 338.652344 755.820312 339.453125 755.226562 340.222656 754.59375 C 340.992188 753.964844 341.730469 753.292969 342.4375 752.589844 C 343.140625 751.882812 343.808594 751.148438 344.441406 750.375 C 345.074219 749.605469 345.667969 748.804688 346.222656 747.976562 C 346.777344 747.148438 347.289062 746.292969 347.757812 745.414062 C 348.226562 744.535156 348.652344 743.632812 349.035156 742.714844 C 349.417969 741.792969 349.753906 740.855469 350.042969 739.902344 C 350.332031 738.945312 350.574219 737.980469 350.769531 737.003906 C 350.964844 736.023438 351.109375 735.039062 351.207031 734.046875 C 351.304688 733.054688 351.355469 732.0625 351.355469 731.0625 L 351.355469 523.769531 L 458.292969 523.769531 L 458.292969 731.0625 C 458.292969 732.0625 458.34375 733.054688 458.441406 734.046875 C 458.539062 735.039062 458.683594 736.023438 458.878906 737.003906 C 459.074219 737.980469 459.316406 738.945312 459.605469 739.902344 C 459.894531 740.855469 460.230469 741.792969 460.613281 742.714844 C 460.992188 743.632812 461.417969 744.535156 461.890625 745.414062 C 462.359375 746.292969 462.871094 747.148438 463.425781 747.976562 C 463.980469 748.804688 464.574219 749.605469 465.203125 750.375 C 465.835938 751.148438 466.507812 751.882812 467.210938 752.589844 C 467.917969 753.292969 468.652344 753.964844 469.425781 754.59375 C 470.195312 755.226562 470.996094 755.820312 471.824219 756.375 C 472.652344 756.929688 473.507812 757.441406 474.386719 757.910156 C 475.265625 758.382812 476.164062 758.808594 477.085938 759.1875 C 478.007812 759.570312 478.945312 759.90625 479.898438 760.195312 C 480.855469 760.484375 481.820312 760.726562 482.796875 760.921875 C 483.777344 761.117188 484.761719 761.261719 485.753906 761.359375 C 486.746094 761.457031 487.738281 761.507812 488.738281 761.507812 L 689.683594 761.507812 C 690.679688 761.507812 691.675781 761.457031 692.667969 761.359375 C 693.660156 761.261719 694.644531 761.117188 695.621094 760.921875 C 696.601562 760.726562 697.566406 760.484375 698.519531 760.195312 C 699.472656 759.90625 700.410156 759.570312 701.332031 759.1875 C 702.253906 758.808594 703.152344 758.382812 704.03125 757.910156 C 704.914062 757.441406 705.765625 756.929688 706.59375 756.375 C 707.425781 755.820312 708.222656 755.226562 708.996094 754.59375 C 709.765625 753.964844 710.503906 753.292969 711.207031 752.589844 C 711.914062 751.882812 712.582031 751.144531 713.214844 750.375 C 713.847656 749.605469 714.441406 748.804688 714.996094 747.976562 C 715.546875 747.148438 716.058594 746.292969 716.53125 745.414062 C 717 744.535156 717.425781 743.632812 717.808594 742.714844 C 718.1875 741.792969 718.523438 740.855469 718.8125 739.902344 C 719.105469 738.945312 719.347656 737.980469 719.539062 737.003906 C 719.734375 736.023438 719.882812 735.039062 719.980469 734.046875 C 720.078125 733.054688 720.125 732.0625 720.125 731.0625 L 720.125 457.269531 C 720.125 455.023438 719.878906 452.800781 719.386719 450.605469 C 718.898438 448.414062 718.171875 446.300781 717.210938 444.265625 C 716.25 442.234375 715.082031 440.332031 713.699219 438.558594 C 712.316406 436.785156 710.757812 435.183594 709.023438 433.753906 L 424.160156 199.5 C 421.4375 197.261719 418.414062 195.546875 415.09375 194.359375 C 411.777344 193.167969 408.351562 192.574219 404.828125 192.574219 Z M 404.828125 192.574219 " fill-opacity="1" fill-rule="nonzero"/></g></svg>